
<svg xmlns="http://www.w3.org/2000/svg"  width="32px" height="32px" viewBox="2.78 7.75 10.5 10">
  <g id="gear">
  <path fill="#104B5D" d="M8.07 15.76c-1.65,0 -2.99,-1.34 -2.99,-2.99 0,-1.65 1.34,-2.99 2.99,-2.99 1.65,0 2.99,1.34 2.99,2.99 0,1.65 -1.34,2.99 -2.99,2.99zm4.82 -1.36c0.13,-0.38 0.21,-0.79 0.24,-1.2l-0.82 -0.4c0,-0.13 0,-0.27 -0.02,-0.4 0,-0.05 -0.01,-0.09 -0.01,-0.14l0.77 -0.49c-0.08,-0.41 -0.2,-0.8 -0.37,-1.16l-0.92 0.07c-0.09,-0.16 -0.19,-0.31 -0.3,-0.46l0.43 -0.81c-0.27,-0.31 -0.58,-0.58 -0.91,-0.81l-0.76 0.51c-0.16,-0.09 -0.32,-0.17 -0.49,-0.25l-0.03 -0.91c-0.38,-0.13 -0.79,-0.21 -1.2,-0.25l-0.4 0.82c-0.13,0 -0.26,0.01 -0.4,0.02 -0.05,0 -0.09,0.01 -0.14,0.02l-0.49 -0.78c-0.41,0.08 -0.8,0.21 -1.16,0.38l0.07 0.92c-0.16,0.09 -0.31,0.18 -0.46,0.29l-0.81 -0.42c-0.31,0.27 -0.58,0.57 -0.81,0.91l0.51 0.76c-0.09,0.15 -0.17,0.31 -0.24,0.48l-0.92 0.04c-0.13,0.38 -0.21,0.78 -0.25,1.19l0.83 0.4c-0.01,0.14 0,0.27 0.01,0.41 0.01,0.04 0.01,0.09 0.02,0.13l-0.78 0.49c0.08,0.41 0.21,0.8 0.38,1.16l0.92 -0.06c0.09,0.16 0.19,0.31 0.29,0.45l-0.42 0.81c0.27,0.31 0.57,0.58 0.91,0.82l0.76 -0.52c0.15,0.1 0.31,0.18 0.48,0.25l0.04 0.92c0.38,0.12 0.78,0.21 1.19,0.24l0.4 -0.82c0.14,0 0.27,0 0.41,-0.02 0.04,0 0.09,-0.01 0.13,-0.01l0.49 0.77c0.41,-0.08 0.8,-0.2 1.16,-0.37l-0.06 -0.92c0.16,-0.09 0.31,-0.19 0.45,-0.3l0.81 0.43c0.31,-0.27 0.58,-0.58 0.82,-0.91l-0.52 -0.76c0.1,-0.16 0.18,-0.32 0.25,-0.49l0.92 -0.03z"/>
  <path fill="#9CC7D0" d="M10.16 12.58c0.1,1.16 -0.76,2.18 -1.91,2.28 -1.15,0.1 -2.17,-0.76 -2.27,-1.91 -0.1,-1.15 0.75,-2.17 1.91,-2.27 1.15,-0.1 2.17,0.75 2.27,1.9zm-4.87 0.19c0,1.53 1.25,2.77 2.78,2.77 1.53,0 2.77,-1.24 2.77,-2.77 0,-1.53 -1.24,-2.78 -2.77,-2.78 -1.53,0 -2.78,1.25 -2.78,2.78z"/>
  <path fill="#104B5D" d="M10.84 12.77c0,1.53 -1.24,2.77 -2.77,2.77 -1.53,0 -2.78,-1.24 -2.78,-2.77 0,-1.53 1.25,-2.78 2.78,-2.78 1.53,0 2.77,1.25 2.77,2.78zm-5.76 0c0,1.65 1.34,2.99 2.99,2.99 1.65,0 2.99,-1.34 2.99,-2.99 0,-1.65 -1.34,-2.99 -2.99,-2.99 -1.65,0 -2.99,1.34 -2.99,2.99z"/>
  </g>
 </svg>
