<?xml version="1.0" encoding="UTF-8"?>

<svg xmlns="http://www.w3.org/2000/svg" xml:space="preserve" width="1280px" height="600px" version="1.1" style="shape-rendering:geometricPrecision; text-rendering:geometricPrecision; image-rendering:optimizeQuality; fill-rule:evenodd; clip-rule:evenodd"
viewBox="0 0 1280 600"
 xmlns:xlink="http://www.w3.org/1999/xlink"
 xmlns:xodm="http://www.corel.com/coreldraw/odm/2003">
 <defs>
  <style type="text/css">
   <!-- <![CDATA[
    .str0 {stroke:#2B2A29;stroke-width:2;stroke-miterlimit:22.9256}
    .fil5 {fill:#FEFEFE}
    .fil0 {fill:#CAE8E6}
    .fil4 {fill:url(#id0)}
    .fil3 {fill:url(#id1)}
    .fil2 {fill:url(#id2)}
    .fil1 {fill:url(#id3)}
    .fil6 {fill:url(#id4)}
   ]]> -->
  </style>
  <linearGradient id="id0" gradientUnits="userSpaceOnUse" x1="728" y1="69" x2="728" y2="487">
   <stop offset="0" style="stop-opacity:1; stop-color:#22424A"/>
   <stop offset="0.368627" style="stop-opacity:1; stop-color:#618D8F"/>
   <stop offset="1" style="stop-opacity:1; stop-color:#A1D9D5"/>
  </linearGradient>
  <linearGradient id="id1" gradientUnits="userSpaceOnUse" x1="635" y1="647" x2="636" y2="457">
   <stop offset="0" style="stop-opacity:1; stop-color:#22424A"/>
   <stop offset="0.219608" style="stop-opacity:1; stop-color:#6C9799"/>
   <stop offset="1" style="stop-opacity:1; stop-color:#B6EDE9"/>
  </linearGradient>
  <linearGradient id="id2" gradientUnits="userSpaceOnUse" x1="639" y1="3" x2="640" y2="161">
   <stop offset="0" style="stop-opacity:1; stop-color:#22424A"/>
   <stop offset="0.368627" style="stop-opacity:1; stop-color:#5E9798"/>
   <stop offset="1" style="stop-opacity:1; stop-color:#9AEDE7"/>
  </linearGradient>
  <linearGradient id="id3" gradientUnits="userSpaceOnUse" x1="637" y1="517" x2="1200" y2="232">
   <stop offset="0" style="stop-opacity:1; stop-color:#58A0AC"/>
   <stop offset="1" style="stop-opacity:1; stop-color:#FEFEFE"/>
  </linearGradient>
  <linearGradient id="id4" gradientUnits="userSpaceOnUse" x1="116" y1="335" x2="1205" y2="69">
   <stop offset="0" style="stop-opacity:1; stop-color:#6DAFBA"/>
   <stop offset="1" style="stop-opacity:1; stop-color:white"/>
  </linearGradient>
 </defs>
 <g id="Слой_x0020_1">
  <metadata id="CorelCorpID_0Corel-Layer"/>
  <polygon class="fil0" points="756,69 756,457 756,467 1278,467 1278,457 1278,69 761,69 "/>
  <rect class="fil1 str0" x="-1" y="3" width="1280" height="600"/>
  <polygon class="fil2" points="1278,3 -2,3 -2,69 1278,69 "/>
  <polygon class="fil3" points="1278,457 -2,457 -2,603 1278,603 "/>
  <image transform="matrix(-0.168967 -0 -0 0.168967 1277.16 44.0008)" x="0" y="0" width="1221" height="3308" xlink:href="wall_Images\wall_ImgID1.png"/>
  <polygon class="fil4" points="695,487 695,69 761,69 761,487 "/>
  <rect class="fil5" x="-1" y="69" width="696" height="388"/>
  <polygon class="fil6" points="695,457 695,69 -1,69 -1,457 "/>
  <image x="441" y="24" width="175" height="578" xlink:href="wall_Images\wall_ImgID2.png"/>
  <image x="-1" y="69" width="197" height="534" xlink:href="wall_Images\wall_ImgID3.png"/>
  <image x="865" y="78" width="100" height="456" xlink:href="wall_Images\wall_ImgID4.png"/>
  <image x="746" y="72" width="152" height="487" xlink:href="wall_Images\wall_ImgID5.png"/>
 </g>
</svg>
